<svg width="202" height="202" viewBox="0 0 202 202" fill="none" xmlns="http://www.w3.org/2000/svg">
<g filter="url(#filter0_d_63_301)">
<circle cx="101" cy="81" r="61" fill="url(#paint0_linear_63_301)"/>
</g>
<path fill-rule="evenodd" clip-rule="evenodd" d="M107.132 45.0028C110.647 44.9886 111.047 45.0171 112.634 45.3458C113.577 45.5458 114.692 45.803 115.106 45.9173C115.592 46.0602 115.949 46.2602 116.135 46.5317C116.306 46.746 116.435 47.1032 116.435 47.3461C116.421 47.6318 115.763 48.9606 112.605 54.6329L113.262 54.933C113.648 55.1044 114.206 55.5616 114.606 56.0046C114.977 56.4332 115.377 57.0619 115.506 57.4191C115.62 57.7763 115.706 58.4478 115.706 58.9193C115.72 59.6051 115.62 59.9623 114.777 61.6626L115.921 62.4199C116.549 62.8485 117.836 63.963 118.779 64.906C120.008 66.1347 120.822 67.1063 121.594 68.2779C122.209 69.1781 123.037 70.664 123.466 71.5642C123.895 72.4643 124.452 73.8216 124.695 74.5646C124.938 75.3076 125.267 76.5649 125.41 77.3508C125.567 78.1366 125.738 79.3368 125.81 80.0369C125.867 80.7227 125.938 81.28 125.967 81.28C125.981 81.28 126.939 80.6513 128.111 79.8797C129.654 78.851 130.454 78.4081 131.14 78.2223C131.841 78.0223 132.312 77.9794 133.07 78.0509C133.741 78.108 134.356 78.2795 134.97 78.5653C135.456 78.8081 136.142 79.2796 136.499 79.6368C136.857 79.994 137.328 80.6799 137.571 81.1799C137.957 81.9658 138 82.2087 138 83.4232C138 84.209 137.929 85.0234 137.814 85.352C137.7 85.6664 137.457 86.1664 137.271 86.4665C137.085 86.7665 132.77 90.91 127.696 95.6822C120.851 102.112 118.25 104.469 117.621 104.812C117.164 105.055 116.364 105.369 115.849 105.484C115.049 105.669 113.377 105.712 93.6981 105.712L94.0554 106.255C94.2555 106.541 94.4127 106.927 94.4127 107.113C94.4127 107.284 94.3269 107.598 94.2126 107.827C94.0983 108.041 91.7975 110.413 84.1947 118H82.9085L74.0195 109.099C67.3886 102.469 65.102 100.097 65.0306 99.7829C64.9877 99.5543 64.9877 99.1971 65.0449 98.997C65.0877 98.797 67.2457 96.5252 70.0895 93.6819C72.9334 90.8386 75.2057 88.6811 75.4058 88.6383C75.6058 88.5811 75.9345 88.5811 76.1489 88.624C76.3776 88.6668 76.7634 88.8954 77.478 89.5241L79.9074 87.3952C81.2365 86.2236 82.8228 84.9234 83.4087 84.5233C83.9946 84.1233 85.1236 83.4946 85.9096 83.1088C86.6956 82.7373 87.6388 82.3516 88.6677 82.0658L88.7535 80.4227C88.7964 79.5225 88.9679 78.1366 89.1251 77.3508C89.2823 76.5649 89.6109 75.3076 89.8539 74.5646C90.0968 73.8216 90.6542 72.4643 91.0829 71.5642C91.5116 70.664 92.3405 69.1781 92.955 68.2779C93.7267 67.1063 94.5413 66.1347 95.7703 64.906C96.7135 63.963 97.9997 62.8485 99.7718 61.6626L99.3002 60.7196C98.9143 59.948 98.8286 59.6051 98.8429 58.8907C98.8429 58.3621 98.9572 57.6763 99.1144 57.2476C99.3145 56.719 99.6289 56.2618 100.158 55.776C100.572 55.3759 101.158 54.9758 101.987 54.7044L100.058 51.2467C98.6714 48.7606 98.1283 47.6461 98.1283 47.3175C98.1283 47.0032 98.2569 46.7174 98.5142 46.4316C98.8429 46.103 99.2144 45.9601 100.629 45.6458C101.572 45.4315 102.573 45.2029 102.844 45.1314C103.116 45.0743 105.045 45.0171 107.132 45.0028ZM102.458 48.1748L101.701 48.3462L104.802 53.9185H109.747C112.148 49.6036 112.819 48.3319 112.805 48.3177C112.791 48.2891 112.191 48.1748 111.49 48.0462C110.79 47.9319 109.147 47.8033 107.846 47.7747C106.546 47.7461 104.974 47.789 104.345 47.8604C103.716 47.9462 102.859 48.0748 102.458 48.1748ZM103.087 57.3334C102.53 57.4905 102.187 57.6906 101.987 57.962C101.815 58.1763 101.687 58.5621 101.701 58.8193C101.701 59.0622 101.758 59.4051 101.844 59.5623C101.93 59.7194 102.201 59.9338 102.444 60.0481C102.859 60.2195 103.03 60.2195 103.988 59.9623C104.831 59.7337 105.517 59.6623 107.203 59.648C108.989 59.648 109.547 59.6909 110.519 59.9623C111.605 60.2481 111.748 60.2624 112.133 60.0624C112.362 59.948 112.619 59.7194 112.705 59.5623C112.791 59.4051 112.848 59.0479 112.848 58.7764C112.848 58.4192 112.734 58.1621 112.448 57.8763C112.148 57.5477 111.762 57.3905 110.704 57.1333C109.804 56.919 108.775 56.7904 107.632 56.7618C106.589 56.7333 105.531 56.7904 104.917 56.9047C104.359 57.0047 103.545 57.2048 103.087 57.3334ZM104.059 62.9199C103.587 63.0485 102.687 63.4057 102.058 63.7201C101.43 64.0201 100.372 64.6774 99.7003 65.1774C99.0287 65.6775 97.9854 66.6348 97.3709 67.2921C96.7421 67.9493 95.7989 69.1638 95.2416 69.9925C94.6842 70.8212 93.9697 72.0785 93.6267 72.7786C93.298 73.4787 92.8264 74.6789 92.5835 75.4219C92.3405 76.1649 92.0547 77.2793 91.9261 77.8937C91.7975 78.4938 91.6545 79.5511 91.6117 80.2512L91.5116 81.4943C94.8271 81.5086 95.8847 81.5943 96.6992 81.7657C97.3709 81.8943 98.3999 82.1801 98.9858 82.3801C99.5717 82.5802 100.601 83.0231 101.272 83.3517C101.944 83.6946 103.002 84.3376 103.63 84.7805C104.331 85.2806 104.988 85.6378 105.317 85.6949L105.845 85.7807V84.0661C104.845 83.566 104.231 83.1231 103.845 82.7516C103.445 82.3658 103.059 81.8658 102.973 81.6372C102.887 81.38 102.887 81.0656 102.959 80.8513C103.03 80.6513 103.273 80.3512 103.502 80.1655C103.745 79.9798 104.102 79.8369 104.388 79.8512C104.731 79.8512 105.045 80.0226 105.674 80.5656C106.203 81.0371 106.66 81.3228 106.989 81.3657C107.275 81.4086 107.66 81.3657 107.903 81.2514C108.132 81.1514 108.404 80.8942 108.504 80.6799C108.618 80.4513 108.704 80.1512 108.704 79.994C108.704 79.8369 108.618 79.5368 108.504 79.3225C108.404 79.0939 108.132 78.851 107.903 78.751C107.675 78.6653 107.174 78.551 106.774 78.5081C106.388 78.4509 105.745 78.2652 105.345 78.0795C104.959 77.8937 104.416 77.4937 104.145 77.1793C103.873 76.8793 103.53 76.3506 103.373 75.9934C103.216 75.6362 103.059 75.0361 103.016 74.6361C102.973 74.2074 103.044 73.6073 103.173 73.1358C103.287 72.7072 103.616 72.0642 103.873 71.707C104.145 71.3498 104.688 70.8783 105.102 70.6354L105.831 70.2068C105.845 68.7066 105.931 68.1065 106.031 67.9064C106.117 67.6921 106.374 67.4349 106.603 67.3349C106.817 67.2206 107.117 67.1349 107.275 67.1349C107.432 67.1349 107.732 67.2206 107.96 67.3349C108.175 67.4349 108.432 67.6921 108.532 67.9064C108.618 68.1065 108.704 68.7066 108.704 69.2495V70.2068C109.861 70.8069 110.433 71.2212 110.704 71.4927C111.104 71.9071 111.205 72.1214 111.205 72.5786C111.205 73.0644 111.119 73.2358 110.704 73.593C110.29 73.9502 110.118 74.0217 109.704 73.9645C109.432 73.936 108.947 73.6931 108.632 73.4502C108.318 73.2073 107.86 72.9644 107.632 72.9072C107.375 72.8501 107.003 72.8929 106.717 73.0072C106.46 73.1215 106.146 73.3787 106.045 73.6073C105.931 73.8216 105.845 74.1217 105.845 74.2789C105.845 74.436 105.931 74.7361 106.045 74.9647C106.146 75.179 106.417 75.4219 106.646 75.5219C106.874 75.6076 107.389 75.7219 107.775 75.7648C108.175 75.822 108.818 76.0077 109.204 76.1934C109.604 76.3792 110.133 76.7793 110.404 77.0936C110.676 77.3936 111.019 77.9223 111.176 78.2795C111.333 78.6367 111.49 79.2511 111.533 79.6368C111.576 80.0655 111.505 80.6656 111.376 81.1371C111.262 81.5657 110.933 82.2087 110.676 82.5659C110.404 82.9231 109.861 83.4089 109.447 83.6375L108.718 84.0661L108.704 85.7092C112.819 85.7807 112.962 85.8092 113.848 86.2236C114.363 86.4522 115.034 86.8951 115.349 87.1809C115.663 87.4666 115.978 87.6952 116.063 87.6952C116.149 87.6952 117.693 86.7237 119.522 85.5235C122.394 83.6375 122.837 83.2946 122.909 82.9231C122.966 82.6945 122.995 81.9801 122.995 81.3514C122.995 80.7227 122.894 79.5654 122.78 78.7796C122.652 77.9937 122.423 76.865 122.266 76.2792C122.094 75.6934 121.708 74.5932 121.408 73.8502C121.094 73.1073 120.551 71.9785 120.194 71.3498C119.836 70.7212 119.093 69.621 118.564 68.9209C118.036 68.2208 117.064 67.1349 116.406 66.5062C115.749 65.8918 114.692 65.0488 114.063 64.6345C113.434 64.2201 112.534 63.7058 112.062 63.4915C111.59 63.2914 110.762 62.9914 110.204 62.8342C109.604 62.6628 108.604 62.5199 107.703 62.4913C106.874 62.4627 105.917 62.4913 105.56 62.5485C105.202 62.6199 104.531 62.7771 104.059 62.9199ZM124.138 85.9093L117.207 90.4671C117.192 92.596 117.121 92.9246 116.764 93.7105C116.535 94.2248 116.049 94.9535 115.706 95.325C115.292 95.7822 114.692 96.2109 114.006 96.5395L112.934 97.0681C102.644 97.1396 101.244 97.111 100.929 96.9681C100.701 96.8681 100.429 96.6109 100.329 96.3823C100.215 96.168 100.129 95.868 100.129 95.7108C100.129 95.5536 100.215 95.2536 100.329 95.025C100.429 94.8107 100.644 94.582 100.786 94.4963C100.944 94.4106 103.387 94.3249 106.774 94.282L112.491 94.2106C113.362 93.6533 113.777 93.239 113.977 92.9389C114.277 92.4817 114.349 92.196 114.349 91.4244C114.349 90.6529 114.277 90.3671 113.977 89.9099C113.777 89.6098 113.362 89.1955 113.048 88.9955C112.491 88.6383 112.462 88.6383 108.346 88.5668C104.473 88.4954 104.159 88.4811 103.63 88.1953C103.316 88.0239 102.573 87.5381 101.987 87.1237C101.401 86.6951 100.429 86.1236 99.8432 85.8378C99.2573 85.5521 98.257 85.152 97.6281 84.952C96.9993 84.7519 95.8989 84.509 95.1987 84.4233C94.4556 84.309 93.3123 84.2804 92.4834 84.3233C91.6974 84.3662 90.4398 84.5662 89.6967 84.7519C88.9536 84.9377 87.8532 85.3235 87.2672 85.5949C86.6813 85.8664 85.781 86.3665 85.2665 86.7094C84.752 87.0523 83.4087 88.1382 82.2797 89.124C81.1507 90.1099 80.0503 91.0672 79.8502 91.2387L79.4787 91.553L90.7685 102.855L115.349 102.783C116.521 102.155 119.908 99.0827 125.71 93.6533C131.755 87.9953 134.756 85.0806 134.97 84.6805C135.228 84.209 135.299 83.8947 135.256 83.3374C135.228 82.8659 135.099 82.4516 134.856 82.1087C134.656 81.8229 134.284 81.4371 134.013 81.2514C133.698 81.0371 133.255 80.9085 132.798 80.8799C132.298 80.8513 131.912 80.9085 131.569 81.0942C131.298 81.2371 127.953 83.3946 124.138 85.9093ZM68.4747 99.4257L83.5516 114.499L90.9114 107.141C79.2786 95.5108 75.8774 92.1388 75.8345 92.1388C75.7916 92.1388 74.1196 93.7819 72.1189 95.7822L68.4747 99.4257ZM95.7989 94.282C95.9847 94.282 96.2991 94.3677 96.5135 94.482C96.7421 94.582 96.9993 94.8392 97.0851 95.0535C97.1851 95.2536 97.2709 95.5536 97.2709 95.7108C97.2709 95.868 97.1851 96.168 97.0708 96.3823C96.9708 96.6109 96.7135 96.8681 96.4992 96.9538C96.2991 97.0539 95.999 97.1396 95.8418 97.1396C95.6846 97.1396 95.3845 97.0539 95.1844 96.9538C94.97 96.8681 94.7128 96.6109 94.6128 96.3823C94.4984 96.168 94.4127 95.8537 94.4127 95.6679C94.4127 95.4965 94.527 95.1964 94.6413 95.0107C94.77 94.8249 94.9986 94.582 95.1701 94.482C95.3416 94.382 95.6274 94.2963 95.7989 94.282Z" fill="white"/>
<defs>
<filter id="filter0_d_63_301" x="0" y="0" width="202" height="202" filterUnits="userSpaceOnUse" color-interpolation-filters="sRGB">
<feFlood flood-opacity="0" result="BackgroundImageFix"/>
<feColorMatrix in="SourceAlpha" type="matrix" values="0 0 0 0 0 0 0 0 0 0 0 0 0 0 0 0 0 0 127 0" result="hardAlpha"/>
<feOffset dy="20"/>
<feGaussianBlur stdDeviation="20"/>
<feComposite in2="hardAlpha" operator="out"/>
<feColorMatrix type="matrix" values="0 0 0 0 0 0 0 0 0 0 0 0 0 0 0 0 0 0 0.25 0"/>
<feBlend mode="normal" in2="BackgroundImageFix" result="effect1_dropShadow_63_301"/>
<feBlend mode="normal" in="SourceGraphic" in2="effect1_dropShadow_63_301" result="shape"/>
</filter>
<linearGradient id="paint0_linear_63_301" x1="73.3333" y1="56.3095" x2="158.807" y2="60.0272" gradientUnits="userSpaceOnUse">
<stop stop-color="#00B05E"/>
<stop offset="1" stop-color="#008E50"/>
</linearGradient>
</defs>
</svg>
