<svg width="34" height="27" viewBox="0 0 34 27" fill="none" xmlns="http://www.w3.org/2000/svg">
<path fill-rule="evenodd" clip-rule="evenodd" d="M25.2258 0.104129C25.0065 0.0420461 24.6209 -0.00624097 24.3617 0.000657179C24.1024 0.000657179 23.7302 0.0489442 23.5308 0.104129C23.3314 0.159315 23.0323 0.283481 22.8661 0.380055C22.6999 0.469731 22.4074 0.683574 22.2147 0.856027C21.9155 1.12506 21.8291 1.16644 21.5699 1.16644C21.4037 1.16644 21.191 1.20783 21.0847 1.26302C20.9849 1.31131 20.8121 1.46306 20.6991 1.58723C20.5928 1.7183 20.4798 1.93904 20.4532 2.0839L20.4066 2.33913L20.3985 2.3392C16.4649 2.37362 16.4514 2.37374 16.086 2.54607C15.8866 2.64954 15.5875 2.86339 15.4213 3.02894C15.2618 3.2014 15.0624 3.50492 14.976 3.70496L14.8231 4.06366L14.7566 5.30533V11.1688V12.3414V14.135V15.3076V16.4803V17.653V19.3775V20.5502V22.3438V23.5164C14.7898 25.2272 14.8031 25.3031 14.9959 25.7238C15.1288 25.9998 15.3216 26.2757 15.4944 26.4344C15.654 26.5792 15.9198 26.7655 16.086 26.8482L16.3851 27H32.4047C33.0628 26.6275 33.3552 26.393 33.4749 26.2412C33.5945 26.0894 33.7607 25.8066 33.8471 25.6204L34 25.2755V4.09816C33.7341 3.51181 33.5214 3.2014 33.3619 3.03584C33.2023 2.87029 32.9032 2.64954 32.7038 2.55297C32.3384 2.37369 32.3316 2.37362 30.3664 2.35295L30.364 2.35292L28.3832 2.33913C28.2768 1.91144 28.1705 1.6907 28.0708 1.56654C27.9644 1.44927 27.7849 1.31131 27.6719 1.25612C27.5523 1.20783 27.3329 1.16644 27.1867 1.16644C26.9674 1.16644 26.861 1.11126 26.5752 0.856027C26.3824 0.683574 26.0899 0.469731 25.9238 0.380055C25.7576 0.283481 25.4452 0.159315 25.2258 0.104129ZM22.7863 1.96663C22.8594 1.84936 23.0323 1.66311 23.1718 1.55274C23.3181 1.44237 23.5374 1.31131 23.6637 1.26302C23.79 1.21473 24.1024 1.17334 24.3617 1.17334C24.6209 1.16644 24.9333 1.20093 25.0596 1.24232C25.1859 1.29061 25.4119 1.40788 25.5582 1.51135C25.7044 1.61482 25.8905 1.80107 25.9703 1.93214C26.0434 2.0632 26.1896 2.20806 26.2827 2.25635C26.3758 2.29774 26.635 2.33913 27.2532 2.33913V3.51181H21.5367V2.33913H21.9355C22.1548 2.33913 22.4074 2.30464 22.4938 2.25635C22.5803 2.21496 22.7065 2.0839 22.7863 1.96663ZM15.8866 4.44306L16.0395 4.13265C16.1525 3.91191 16.2854 3.77394 16.4915 3.67047C16.7707 3.51871 16.8438 3.51181 20.4066 3.51181L20.4665 3.80843C20.5064 3.98779 20.6127 4.18093 20.7523 4.3189C20.8719 4.43616 21.0514 4.57413 21.1511 4.60862C21.2708 4.65691 22.4008 4.6845 24.3949 4.6845C27.1668 4.6845 27.4725 4.6707 27.6985 4.56723C27.8315 4.49825 28.0109 4.36029 28.0974 4.25681C28.1771 4.14644 28.2768 3.9395 28.3832 3.51181H30.1779C31.288 3.51181 32.0457 3.53941 32.1521 3.58769C32.2585 3.62218 32.4246 3.73945 32.531 3.84292C32.6373 3.9464 32.7636 4.13265 32.8102 4.25681C32.8899 4.44306 32.9032 6.1745 32.9032 14.7075C32.9032 24.7581 32.8966 24.9375 32.7703 25.2272C32.6772 25.4203 32.5443 25.5721 32.0723 25.8618H16.7175L16.4516 25.7031C16.3054 25.6204 16.1259 25.4272 15.8866 24.9995V4.44306Z" fill="#33B164"/>
<path fill-rule="evenodd" clip-rule="evenodd" d="M6.78006 23.5164H14.7566V22.3438H1.52884L1.13001 21.9299V13.997L1.27625 13.8245C1.36266 13.7349 1.90772 13.3624 2.49267 12.9968L3.55621 12.3414H14.7566V11.1688H9.47214C5.27781 11.1688 4.19433 11.1481 4.20762 11.086C4.21417 11.0622 4.31097 10.7625 4.46151 10.2963C4.61671 9.81572 4.82902 9.15829 5.05846 8.44399C5.51046 7.04366 5.93587 5.82269 5.9957 5.73302C6.06217 5.63644 6.20841 5.50538 6.32805 5.4364C6.53411 5.31223 6.75347 5.30533 14.7566 5.30533L14.8231 4.06366L6.41447 4.09816C5.74311 4.42927 5.45064 4.64311 5.28446 4.82246C5.13157 4.99492 4.9654 5.22255 4.90557 5.33982C4.8524 5.45709 4.53333 6.40903 4.19433 7.45755C3.86197 8.51297 3.5695 9.37524 3.53627 9.37524C3.50968 9.38214 3.44321 9.32695 3.39003 9.26487C3.33685 9.19589 3.13744 9.07172 2.95797 8.98894C2.68543 8.85098 2.51261 8.82339 2.02737 8.82339C1.69501 8.82339 1.30948 8.86477 1.16989 8.91306C1.02366 8.95445 0.757771 9.1338 0.578299 9.30626C0.358944 9.5201 0.212708 9.73394 0.126295 9.98227C0.059824 10.1754 0 10.4445 0 10.5617C0 10.6859 0.0465298 10.9411 0.113001 11.1343C0.179472 11.355 0.339003 11.5964 0.525122 11.7965C0.711241 11.9827 0.950538 12.1483 1.13001 12.2104L1.42913 12.3138C0.910655 12.6174 0.664712 12.8036 0.538416 12.9209C0.418768 13.0382 0.245943 13.2865 0.159531 13.4796L0 13.8245V22.1023C0.239296 22.6404 0.425415 22.9025 0.571652 23.0405C0.711241 23.1715 0.897361 23.3026 0.977126 23.3302C1.12336 23.3785 1.13001 23.413 1.14995 24.289C1.16325 25.0616 1.18983 25.2479 1.30283 25.4824C1.3826 25.6342 1.57537 25.8756 1.7349 26.0205C1.91437 26.1791 2.16696 26.324 2.39296 26.393C2.68543 26.4757 3.03773 26.4964 4.15445 26.4757L5.55034 26.4481C6.10205 26.1308 6.34135 25.9239 6.43441 25.7928C6.52747 25.6618 6.64712 25.4479 6.69365 25.3306C6.74682 25.1858 6.78006 24.7995 6.78006 24.3097V23.5164ZM1.13001 10.6169C1.13001 10.541 1.17654 10.3893 1.22972 10.2789C1.28289 10.1685 1.36931 10.0651 1.41584 10.0444C1.45572 10.0237 1.7216 10.003 1.99413 10.003C2.45279 9.99607 2.50596 10.0099 2.65885 10.1754C2.79179 10.3203 2.82502 10.4376 2.85826 11.1688H2.19355C1.54213 11.1688 1.52219 11.1619 1.32942 10.9618C1.21642 10.8445 1.13001 10.6928 1.13001 10.6169ZM2.4129 25.0754C2.26667 24.903 2.25337 24.8271 2.25337 24.1994V23.5095H5.6434L5.65005 24.2131C5.65005 24.8892 5.6434 24.9306 5.3044 25.2686H2.57908L2.4129 25.0754Z" fill="white"/>
<path fill-rule="evenodd" clip-rule="evenodd" d="M22.115 6.47112C22.2568 6.47112 22.3831 6.5286 22.4938 6.64357C22.6068 6.75394 22.66 6.89191 22.66 7.03677C22.66 7.21612 22.4074 7.6645 21.4502 9.1407C20.6592 10.3686 20.1806 11.0515 20.0676 11.0998C19.9812 11.1412 19.8283 11.155 19.7353 11.1343C19.6422 11.1136 19.2567 10.7687 18.8579 10.3548C18.3062 9.77533 18.1466 9.56839 18.1466 9.41663C18.1466 9.31315 18.2197 9.1338 18.3062 9.02343C18.4325 8.86477 18.5322 8.81649 18.705 8.81649C18.8978 8.81649 19.0108 8.88547 19.7685 9.63047L20.7324 8.13357C21.2575 7.31269 21.7361 6.60218 21.7959 6.56079C21.8491 6.51251 21.9953 6.47112 22.115 6.47112ZM24.149 7.6438H29.706L29.8721 7.81626C29.9851 7.92663 30.0383 8.06459 30.045 8.20945C30.045 8.36121 29.9918 8.49227 29.6993 8.782L27.0272 8.80269C24.9732 8.81649 24.3152 8.79579 24.1623 8.73371C24.0493 8.67852 23.9296 8.54746 23.8831 8.4164C23.8299 8.29223 23.81 8.14047 23.8366 8.07149C23.8565 8.00941 23.9363 7.88524 24.016 7.79556L24.149 7.6438ZM27.9112 9.98917L28.0774 10.1616C28.1904 10.2789 28.2436 10.41 28.2436 10.5755C28.2436 10.7618 28.1971 10.8583 27.8448 11.1619H26.05C24.9865 11.1619 24.2022 11.1343 24.1224 11.0929C24.0493 11.0584 23.9429 10.9204 23.8897 10.7825C23.8166 10.61 23.81 10.4996 23.8565 10.3686C23.8964 10.2789 23.9894 10.1547 24.0759 10.0926C24.1955 10.0099 24.5345 9.98917 27.9112 9.98917ZM22.1482 12.3345C22.2545 12.3345 22.4008 12.4104 22.4938 12.507C22.6068 12.6243 22.66 12.7553 22.66 12.9071C22.66 13.0795 22.3941 13.5417 21.4502 15.0179C20.7789 16.0526 20.1806 16.9356 20.1208 16.9632C20.0543 16.9977 19.9081 17.0253 19.7885 17.0253C19.6023 17.0253 19.4761 16.9218 18.8911 16.3217C18.459 15.8664 18.1998 15.5422 18.1666 15.4042C18.14 15.2732 18.1533 15.1421 18.2197 15.0248C18.2729 14.9351 18.3859 14.811 18.479 14.7558C18.5853 14.6937 18.705 14.6799 18.8379 14.7144C18.9509 14.742 19.2035 14.9282 19.7685 15.5008L20.7324 14.0108C21.2641 13.1968 21.756 12.4863 21.8291 12.4311C21.9022 12.3759 22.0485 12.3345 22.1482 12.3345ZM24.1955 13.5072H29.706L29.8721 13.6797C29.9851 13.7969 30.0383 13.928 30.0383 14.0936C30.0383 14.2591 29.9851 14.3902 29.7126 14.6799H24.1889L24.0094 14.5144C23.8698 14.3902 23.8233 14.2867 23.8233 14.0936C23.8233 13.9004 23.8698 13.7969 24.0094 13.6728L24.1955 13.5072ZM27.8448 15.8526L28.0442 16.025C28.1971 16.1561 28.2436 16.2527 28.2436 16.4389C28.2436 16.6045 28.1904 16.7356 27.9179 17.0253H26.07C24.5345 17.0253 24.1955 17.0115 24.0759 16.9218C23.9894 16.8666 23.8964 16.7425 23.8565 16.6459C23.81 16.5148 23.8166 16.4113 23.8964 16.2389C23.9562 16.1078 24.0559 15.9699 24.1157 15.9285C24.1822 15.8802 24.8602 15.8595 27.8448 15.8526ZM22.115 18.2049C22.1548 18.198 22.2612 18.2325 22.3476 18.2807C22.4274 18.3221 22.5337 18.4049 22.5736 18.467C22.6201 18.5291 22.66 18.6808 22.66 18.805C22.66 18.9775 22.4074 19.412 21.4502 20.9089C20.5994 22.2196 20.1806 22.8128 20.0543 22.8749C19.9148 22.937 19.8217 22.937 19.6888 22.8887C19.5824 22.8473 19.2102 22.5093 18.8579 22.1437C18.4391 21.716 18.1932 21.4056 18.1732 21.2883C18.1533 21.178 18.1799 21.0124 18.233 20.9089C18.2796 20.7986 18.3726 20.6951 18.4325 20.6675C18.4923 20.633 18.6385 20.6123 18.7582 20.6123C18.931 20.6123 19.044 20.6882 19.3564 21.0124C19.5957 21.2607 19.7552 21.378 19.7951 21.3366C19.8283 21.3021 20.2804 20.6054 20.7988 19.7983C21.3372 18.9568 21.8025 18.3014 21.8823 18.2669C21.9621 18.2325 22.0684 18.2049 22.115 18.2049ZM29.6993 19.4051L29.8721 19.5776C29.9851 19.6949 30.045 19.819 30.0383 19.9777C30.0383 20.1157 29.9785 20.2605 29.7126 20.5433L24.1556 20.5502L24.016 20.3916C23.9429 20.3019 23.8565 20.1777 23.8366 20.1157C23.81 20.0467 23.8233 19.9018 23.8565 19.7845C23.8964 19.6742 24.0027 19.5293 24.1091 19.4741C24.262 19.3913 24.714 19.3775 29.6993 19.4051ZM27.9245 21.7505L28.0841 21.9437C28.1771 22.054 28.2436 22.2196 28.2436 22.3369C28.2436 22.4541 28.1771 22.6266 27.9245 22.9232L26.2029 22.9439C25.1261 22.9577 24.3949 22.937 24.242 22.8956C24.0626 22.8404 23.9562 22.7576 23.8831 22.599C23.7834 22.3989 23.7834 22.3438 23.8631 22.1368C23.923 21.9919 24.036 21.8609 24.1556 21.8057C24.3085 21.7367 24.7871 21.7229 27.9245 21.7505Z" fill="#33B164"/>
<path d="M3.98162 19.3775C4.36716 19.3775 4.67957 19.4051 4.77928 19.4603C4.87234 19.5086 4.98534 19.6397 5.03851 19.75C5.08504 19.8673 5.10499 20.026 5.08504 20.1157C5.0651 20.1984 4.98534 20.3295 4.91222 20.4054C4.79257 20.5295 4.69286 20.5433 3.98162 20.5433C3.2172 20.5433 3.17732 20.5364 3.01779 20.3709C2.91144 20.2605 2.85161 20.1225 2.85161 19.9777C2.85161 19.8259 2.90479 19.7018 2.99785 19.6052C3.08426 19.5224 3.19726 19.4396 3.25044 19.4189C3.30362 19.3982 3.63597 19.3775 3.98162 19.3775Z" fill="white"/>
<path d="M7.61095 17.5771C7.79042 17.6254 8.99355 17.653 14.7566 17.653V16.4803H7.97654V16.2872C7.97654 16.1837 8.04966 15.9906 8.14936 15.8595C8.24907 15.7284 8.4219 15.5491 8.52825 15.4594L8.73431 15.3076H14.7566V14.135L8.4086 14.1694L8.07625 14.3488C7.89013 14.4523 7.61759 14.6661 7.45806 14.8317C7.29853 14.9972 7.11241 15.2594 7.04594 15.4111C6.97282 15.5629 6.88641 15.8664 6.84653 16.0871C6.8 16.3493 6.8 16.57 6.84653 16.7563C6.87977 16.908 7.01271 17.1357 7.12571 17.2667C7.24536 17.3909 7.46471 17.5357 7.61095 17.5771Z" fill="white"/>
<path d="M8.27566 20.5571L14.7566 20.5502V19.3775H11.5992C9.07331 19.3775 8.4086 19.3982 8.25572 19.4741C8.15601 19.5224 8.0563 19.619 8.02307 19.6811C7.99648 19.7431 7.97654 19.8949 7.97654 20.0191C7.97654 20.1501 8.03636 20.3019 8.27566 20.5571Z" fill="white"/>
<path fill-rule="evenodd" clip-rule="evenodd" d="M3.94839 13.5141C4.09462 13.5141 4.34721 13.5555 4.51339 13.6107C4.67957 13.6659 4.91887 13.8038 5.04516 13.9073C5.17146 14.0177 5.36422 14.2729 5.46393 14.4799C5.63675 14.8386 5.6434 14.9007 5.6434 15.8526C5.6434 16.7632 5.63011 16.8873 5.48387 17.1977C5.39746 17.3909 5.24457 17.6254 5.13822 17.7289C5.03187 17.8324 4.81251 17.9772 4.64633 18.06C4.46022 18.1428 4.20762 18.198 3.96833 18.198C3.75562 18.198 3.48974 18.1566 3.37009 18.1083C3.25044 18.06 3.04438 17.9358 2.91808 17.8393C2.79179 17.7427 2.59902 17.4944 2.48602 17.2943C2.28661 16.9287 2.28661 16.9149 2.28661 15.8526C2.28661 14.942 2.30655 14.7489 2.4129 14.5419C2.47937 14.4109 2.63226 14.197 2.74526 14.0729C2.85826 13.9487 3.03773 13.7969 3.13744 13.7349C3.24379 13.6728 3.40332 13.6038 3.50303 13.5762C3.60274 13.5417 3.80215 13.521 3.94839 13.5141ZM3.54956 16.8183C3.39668 16.6252 3.38338 16.57 3.39003 15.8526L3.39006 15.8496C3.39668 15.1075 3.39692 15.0797 3.5828 14.8869C3.68915 14.7696 3.83539 14.6799 3.9085 14.6799C3.98827 14.6799 4.13451 14.7213 4.23421 14.7765C4.33392 14.8248 4.44027 14.9213 4.46686 14.9834C4.49345 15.0455 4.51339 15.4525 4.51339 15.8871C4.51339 16.639 4.50674 16.6942 4.35386 16.8528C4.24086 16.977 4.11456 17.0253 3.95503 17.0253C3.76891 17.0253 3.67586 16.977 3.54956 16.8183Z" fill="white"/>
</svg>
