<svg width="11" height="19" viewBox="0 0 11 19" fill="none" xmlns="http://www.w3.org/2000/svg">
<path d="M0.488526 0.499874C0.333665 0.657298 0.210805 0.844287 0.126977 1.05014C0.0431491 1.25599 0 1.47666 0 1.69952C0 1.92238 0.0431491 2.14305 0.126977 2.3489C0.210805 2.55475 0.333665 2.74174 0.488526 2.89917L6.97003 9.50148L0.488526 16.1038C0.176181 16.422 0.000707339 16.8535 0.000707339 17.3034C0.000707339 17.7534 0.176181 18.1849 0.488526 18.5031C0.80087 18.8213 1.2245 19 1.66622 19C2.10794 19 2.53157 18.8213 2.84392 18.5031L10.5115 10.6926C10.6663 10.5352 10.7892 10.3482 10.873 10.1424C10.9569 9.93651 11 9.71583 11 9.49297C11 9.27011 10.9569 9.04944 10.873 8.84359C10.7892 8.63774 10.6663 8.45075 10.5115 8.29333L2.84392 0.482857C2.20913 -0.163761 1.14002 -0.163761 0.488526 0.499874Z" fill="#00B05E"/>
</svg>
