<svg width="26" height="26" viewBox="0 0 26 26" fill="none" xmlns="http://www.w3.org/2000/svg">
<circle cx="13" cy="13" r="13" fill="white"/>
<path d="M13 0C10.4289 0 7.91542 0.762433 5.77759 2.19089C3.63976 3.61934 1.97351 5.64966 0.989576 8.0251C0.00563795 10.4005 -0.251811 13.0145 0.249794 15.5361C0.751399 18.058 1.98954 20.3742 3.80762 22.1924C5.6257 24.0105 7.94207 25.2486 10.4639 25.7502C12.9855 26.2519 15.5995 25.9943 17.9749 25.0104C20.3504 24.0264 22.3806 22.3603 23.8092 20.2225C25.2376 18.0846 26 15.5712 26 13C26 9.55218 24.6303 6.24558 22.1925 3.80762C19.7545 1.36963 16.4478 0 13 0ZM19.3862 8.90499L17.2575 18.9637C17.095 19.6787 16.6725 19.8412 16.0712 19.5162L12.8213 17.1112L11.1963 18.6225C11.1197 18.7224 11.0214 18.8037 10.9088 18.8601C10.7962 18.9163 10.6722 18.9462 10.5462 18.9475L10.7738 15.6975L16.7862 10.2537C17.0625 10.0262 16.7862 9.89624 16.3962 10.1237L9.01875 14.755L5.76875 13.7475C5.07 13.5362 5.05375 13.0487 5.915 12.7237L18.4438 7.84874C19.0613 7.66999 19.5813 8.02749 19.3862 8.90499Z" fill="black"/>
<path d="M13 0C10.4289 0 7.91542 0.762433 5.77759 2.19089C3.63976 3.61934 1.97351 5.64966 0.989576 8.0251C0.00563795 10.4005 -0.251811 13.0145 0.249794 15.5361C0.751399 18.058 1.98954 20.3742 3.80762 22.1924C5.6257 24.0105 7.94207 25.2486 10.4639 25.7502C12.9855 26.2519 15.5995 25.9943 17.9749 25.0104C20.3504 24.0264 22.3806 22.3603 23.8092 20.2225C25.2376 18.0846 26 15.5712 26 13C26 9.55218 24.6303 6.24558 22.1925 3.80762C19.7545 1.36963 16.4478 0 13 0ZM19.3862 8.90499L17.2575 18.9637C17.095 19.6787 16.6725 19.8412 16.0712 19.5162L12.8213 17.1112L11.1963 18.6225C11.1197 18.7224 11.0214 18.8037 10.9088 18.8601C10.7962 18.9163 10.6722 18.9462 10.5462 18.9475L10.7738 15.6975L16.7862 10.2537C17.0625 10.0262 16.7862 9.89624 16.3962 10.1237L9.01875 14.755L5.76875 13.7475C5.07 13.5362 5.05375 13.0487 5.915 12.7237L18.4438 7.84874C19.0613 7.66999 19.5813 8.02749 19.3862 8.90499Z" fill="#2AABEE"/>
</svg>
