<svg width="93" height="65" viewBox="0 0 93 65" fill="none" xmlns="http://www.w3.org/2000/svg">
<g clip-path="url(#clip0_2560_247)">
<path d="M61.9494 31.5532C53.4224 27.0189 45.2577 22.8503 36.9119 18.498V44.5345C45.6942 39.7839 54.9511 35.4334 61.9856 31.5532H61.9494Z" fill="white"/>
<path d="M61.9494 31.5532C53.4224 27.0189 36.9119 18.498 36.9119 18.498L58.9247 33.2203C58.9247 33.2203 54.9149 35.4334 61.9494 31.5532Z" fill="#D5D5D5"/>
<path d="M38.5165 64.9157C20.8051 64.5912 14.7558 64.2994 11.0375 63.5371C8.52189 63.0306 6.33579 61.906 4.73287 60.275C3.49402 59.0406 2.50881 57.1571 1.74445 54.5441C1.08879 52.367 0.83343 50.5557 0.469367 46.1313C-0.0879428 36.146 -0.2208 27.9822 0.469367 18.8604C1.03875 13.8231 1.31482 7.84318 5.09694 4.35448C6.88274 2.72173 8.96015 1.671 11.2929 1.23663C14.937 0.548158 30.4623 0.00390625 46.5346 0.00390625C62.5706 0.00390625 78.1304 0.548158 81.7779 1.23663C84.6922 1.78088 87.4252 3.41191 89.0299 5.51509C92.4807 10.9164 92.5411 17.6328 92.8914 22.8865C93.0363 25.3897 93.0363 39.6038 92.8914 42.107C92.3461 50.4098 91.9079 53.3474 90.669 56.3931C89.9029 58.316 89.249 59.3307 88.1171 60.4553C86.3419 62.1858 84.0789 63.3369 81.6296 63.7551C66.3027 64.902 53.2878 65.1509 38.5165 64.9157ZM61.9874 31.5533C53.4604 27.019 45.2957 22.8144 36.9499 18.4621V44.5003C45.7322 39.7497 54.9908 35.3974 62.0236 31.5172L61.9874 31.5533Z" fill="#CD201F"/>
</g>
<defs>
<clipPath id="clip0_2560_247">
<rect width="93" height="65" fill="white"/>
</clipPath>
</defs>
</svg>
